<?xml version="1.0" encoding="utf-8"?>
<!-- Generator: Adobe Illustrator 25.1.0, SVG Export Plug-In . SVG Version: 6.00 Build 0)  -->
<svg version="1.1" id="Layer_1" xmlns="http://www.w3.org/2000/svg" xmlns:xlink="http://www.w3.org/1999/xlink" x="0px" y="0px"
	 viewBox="0 0 517.15 223.02" style="enable-background:new 0 0 517.15 223.02;" xml:space="preserve">
<style type="text/css">
	.st0{fill:#FFFFFF;}
</style>
<path class="st0" d="M260.06,111.67c0,27.28-22.12,49.4-49.4,49.4c-27.28,0-49.4-22.12-49.4-49.4c0-27.28,22.12-49.4,49.4-49.4
	C237.94,62.26,260.06,84.38,260.06,111.67 M454.75,111.67c0-27.28-22.12-49.4-49.4-49.4c-27.28,0-49.4,22.12-49.4,49.4
	c0,27.28,22.11,49.4,49.4,49.4C432.63,161.07,454.75,138.95,454.75,111.67 M319.35,111.81l35-35c-8.95-8.98-21.32-14.54-35-14.54
	c-27.28,0-49.4,22.12-49.4,49.4c0,27.28,22.12,49.4,49.4,49.4c13.61,0,25.93-5.5,34.86-14.4L319.35,111.81z M61.91,67.22l51.8,89.81
	l51.8-89.81H61.91z"/>
</svg>
