<?xml version="1.0" encoding="utf-8"?>
<!-- Generator: Adobe Illustrator 25.1.0, SVG Export Plug-In . SVG Version: 6.00 Build 0)  -->
<svg version="1.1" id="Layer_1" xmlns="http://www.w3.org/2000/svg" xmlns:xlink="http://www.w3.org/1999/xlink" x="0px" y="0px"
	 viewBox="0 0 912.75 334.7" style="enable-background:new 0 0 912.75 334.7;" xml:space="preserve">
<style type="text/css">
	.st0{fill:#FFFFFF;}
</style>
<path class="st0" d="M290.92,87.37h-6.78v-4.95h19.78v4.95h-6.75v17.13h-6.24V87.37z M314.02,95.61l2.84-7.07l2.84,7.07H314.02z
	 M323.26,104.5h6.5l-9.78-22.08h-6.15l-9.75,22.08h6.38l1.74-4.29h9.33L323.26,104.5z M345.73,88.19c0.65,0.57,0.98,1.37,0.98,2.4
	c0,1.03-0.33,1.83-0.98,2.38c-0.65,0.56-1.62,0.83-2.9,0.83h-3.47v-6.47h3.47C344.11,87.34,345.08,87.62,345.73,88.19 M346.77,104.5
	h6.69l-4.76-6.94c1.39-0.67,2.45-1.6,3.2-2.79c0.75-1.19,1.12-2.58,1.12-4.18c0-1.66-0.4-3.11-1.2-4.34
	c-0.8-1.23-1.94-2.18-3.41-2.84c-1.47-0.66-3.21-0.99-5.2-0.99h-10.1v22.08h6.24v-5.87h3.41L346.77,104.5z M362.41,104.5h6.25V87.37
	h6.75v-4.95h-19.78v4.95h6.78V104.5z M381.52,102.26c1.82,1.79,4.37,2.68,7.65,2.68c3.28,0,5.83-0.9,7.65-2.68
	c1.82-1.79,2.73-4.32,2.73-7.61V82.42h-6.15v12.05c0,3.53-1.39,5.3-4.17,5.3c-2.8,0-4.2-1.77-4.2-5.3V82.42h-6.25v12.24
	C378.79,97.94,379.7,100.48,381.52,102.26 M428.74,88.19c0.65,0.57,0.98,1.37,0.98,2.4c0,1.03-0.33,1.83-0.98,2.38
	c-0.65,0.56-1.62,0.83-2.9,0.83h-3.47v-6.47h3.47C427.12,87.34,428.08,87.62,428.74,88.19 M429.78,104.5h6.69l-4.77-6.94
	c1.39-0.67,2.45-1.6,3.2-2.79c0.74-1.19,1.12-2.58,1.12-4.18c0-1.66-0.4-3.11-1.2-4.34c-0.8-1.23-1.94-2.18-3.41-2.84
	c-1.47-0.66-3.21-0.99-5.2-0.99h-10.1v22.08h6.24v-5.87h3.41L429.78,104.5z M448.33,95.61l2.84-7.07l2.84,7.07H448.33z
	 M457.57,104.5h6.5l-9.78-22.08h-6.15l-9.75,22.08h6.37l1.73-4.29h9.34L457.57,104.5z M482.25,104.5h7.26l-9.5-12.3l9.02-9.78h-6.88
	l-8.55,9.18v-9.18h-6.18v22.08h6.18v-5.52l2.34-2.49L482.25,104.5z M498.91,99.68v-4.04h9.81v-4.67h-9.81v-3.72h11.13v-4.83h-17.32
	v22.08h17.73v-4.83H498.91z M530.39,82.42v11.77l-9.75-11.77h-5.14v22.09h6.12V92.74l9.75,11.77h5.14V82.42H530.39z M548.76,99.52
	V87.4h3.94c1.89,0,3.41,0.54,4.55,1.61c1.15,1.07,1.72,2.55,1.72,4.45c0,1.9-0.57,3.38-1.72,4.45c-1.15,1.07-2.67,1.61-4.55,1.61
	H548.76z M542.51,104.5h10.44c2.42,0,4.57-0.45,6.44-1.36c1.87-0.9,3.32-2.19,4.36-3.85c1.03-1.66,1.55-3.61,1.55-5.84
	c0-2.23-0.52-4.17-1.55-5.84c-1.03-1.66-2.48-2.94-4.36-3.85c-1.87-0.91-4.02-1.36-6.44-1.36h-10.44V104.5z M572.68,102.26
	c1.82,1.79,4.37,2.68,7.65,2.68c3.28,0,5.83-0.9,7.65-2.68c1.82-1.79,2.73-4.32,2.73-7.61V82.42h-6.15v12.05
	c0,3.53-1.39,5.3-4.17,5.3c-2.8,0-4.2-1.77-4.2-5.3V82.42h-6.25v12.24C569.96,97.94,570.87,100.48,572.68,102.26 M599.08,104.28
	c1.68,0.44,3.42,0.66,5.21,0.66c2.1,0,3.89-0.32,5.36-0.96c1.47-0.64,2.58-1.5,3.31-2.57c0.74-1.07,1.1-2.27,1.1-3.6
	c0-1.54-0.4-2.75-1.22-3.64c-0.81-0.89-1.77-1.55-2.87-1.96c-1.1-0.41-2.5-0.79-4.18-1.15c-1.5-0.32-2.58-0.62-3.25-0.91
	c-0.67-0.3-1.01-0.74-1.01-1.32c0-0.59,0.28-1.07,0.85-1.44c0.57-0.37,1.47-0.55,2.71-0.55c1.97,0,4.02,0.57,6.12,1.7l1.92-4.64
	c-1.07-0.63-2.32-1.11-3.72-1.44c-1.41-0.32-2.84-0.49-4.29-0.49c-2.12,0-3.92,0.32-5.38,0.95c-1.46,0.63-2.56,1.49-3.29,2.57
	c-0.74,1.08-1.1,2.3-1.1,3.65c0,1.53,0.4,2.75,1.2,3.66c0.8,0.9,1.76,1.56,2.87,1.97c1.12,0.41,2.5,0.8,4.17,1.15
	c1.51,0.34,2.61,0.66,3.3,0.96c0.68,0.3,1.02,0.77,1.02,1.4c0,1.2-1.2,1.8-3.59,1.8c-1.26,0-2.55-0.2-3.85-0.6
	c-1.3-0.4-2.45-0.92-3.44-1.58l-2.05,4.6C596.03,103.25,597.39,103.84,599.08,104.28 M618.51,104.5h16.78v-4.95h-10.54V82.42h-6.24
	V104.5z M639.34,104.5h6.25V82.42h-6.25V104.5z M666.44,104.5h7.26l-9.5-12.3l9.03-9.78h-6.88l-8.55,9.18v-9.18h-6.18v22.08h6.18
	v-5.52l2.34-2.49L666.44,104.5z M702.5,104.5h7.26l-9.5-12.3l9.02-9.78h-6.88l-8.55,9.18v-9.18h-6.19v22.08h6.19v-5.52l2.33-2.49
	L702.5,104.5z M726.35,98.98c-0.91,0.53-1.92,0.79-3.03,0.79c-1.12,0-2.13-0.26-3.03-0.79c-0.9-0.52-1.62-1.27-2.15-2.22
	c-0.52-0.96-0.79-2.05-0.79-3.29c0-1.24,0.26-2.34,0.79-3.3c0.53-0.95,1.24-1.7,2.15-2.22c0.9-0.52,1.92-0.79,3.03-0.79
	c1.11,0,2.12,0.26,3.03,0.79c0.9,0.53,1.62,1.27,2.14,2.22c0.53,0.96,0.79,2.06,0.79,3.3c0,1.24-0.26,2.34-0.79,3.29
	C727.97,97.71,727.26,98.46,726.35,98.98 M717.03,103.46c1.86,0.99,3.96,1.48,6.3,1.48c2.33,0,4.43-0.5,6.29-1.48
	c1.86-0.99,3.32-2.36,4.38-4.1c1.06-1.75,1.59-3.71,1.59-5.9c0-2.19-0.53-4.16-1.59-5.9c-1.06-1.75-2.52-3.11-4.38-4.1
	c-1.86-0.99-3.96-1.48-6.29-1.48c-2.34,0-4.43,0.49-6.3,1.48c-1.86,0.99-3.32,2.36-4.39,4.1c-1.06,1.75-1.59,3.71-1.59,5.9
	c0,2.19,0.53,4.15,1.59,5.9C713.7,101.11,715.16,102.47,717.03,103.46 M740.45,104.5h16.78v-4.95H746.7V82.42h-6.24V104.5z
	 M761.28,104.5h16.78v-4.95h-10.54V82.42h-6.24V104.5z M788.28,99.68v-4.04h9.81v-4.67h-9.81v-3.72h11.14v-4.83H782.1v22.08h17.73
	v-4.83H788.28z M811.13,99.52V87.4h3.94c1.89,0,3.41,0.54,4.56,1.61c1.15,1.07,1.72,2.55,1.72,4.45c0,1.9-0.57,3.38-1.72,4.45
	c-1.15,1.07-2.67,1.61-4.56,1.61H811.13z M804.88,104.5h10.44c2.42,0,4.56-0.45,6.43-1.36c1.87-0.9,3.32-2.19,4.35-3.85
	c1.03-1.66,1.55-3.61,1.55-5.84c0-2.23-0.52-4.17-1.55-5.84c-1.03-1.66-2.48-2.94-4.35-3.85c-1.87-0.91-4.02-1.36-6.43-1.36h-10.44
	V104.5z M843.84,75.82l-2.71,2.4l-2.72-2.4h-3.97l4.1,4.8h5.17l4.1-4.8H843.84z M839.4,99.55l11.14-13.22v-3.91h-19.03v4.95h10.86
	l-11.14,13.22v3.91h19.78v-4.95H839.4z M290.92,142.36h6.24v-17.13h6.75v-4.95h-19.78v4.95h6.78V142.36z M314.02,133.47l2.84-7.07
	l2.84,7.07H314.02z M323.26,142.36h6.5l-9.78-22.08h-6.15l-9.75,22.08h6.38l1.74-4.29h9.33L323.26,142.36z M345.73,126.05
	c0.65,0.57,0.98,1.37,0.98,2.4c0,1.03-0.33,1.82-0.98,2.38c-0.65,0.56-1.62,0.84-2.9,0.84h-3.47v-6.47h3.47
	C344.11,125.2,345.08,125.49,345.73,126.05 M346.77,142.36h6.69l-4.76-6.94c1.39-0.67,2.45-1.6,3.2-2.79
	c0.75-1.19,1.12-2.58,1.12-4.18c0-1.66-0.4-3.11-1.2-4.34c-0.8-1.23-1.94-2.18-3.41-2.84c-1.47-0.66-3.21-1-5.2-1h-10.1v22.08h6.24
	v-5.87h3.41L346.77,142.36z M362.41,142.36h6.25v-17.13h6.75v-4.95h-19.78v4.95h6.78V142.36z M381.52,140.12
	c1.82,1.79,4.37,2.68,7.65,2.68c3.28,0,5.83-0.9,7.65-2.68c1.82-1.79,2.73-4.32,2.73-7.6v-12.24h-6.15v12.05
	c0,3.53-1.39,5.3-4.17,5.3c-2.8,0-4.2-1.77-4.2-5.3v-12.05h-6.25v12.24C378.79,135.8,379.7,138.34,381.52,140.12 M432.33,120.28
	l-6.12,14.39l-5.99-14.39h-6.75l9.43,22.09h6.15l9.47-22.09H432.33z M455.27,136.84c-0.9,0.53-1.91,0.79-3.03,0.79
	c-1.12,0-2.13-0.26-3.03-0.79c-0.9-0.52-1.62-1.27-2.15-2.22c-0.52-0.95-0.79-2.05-0.79-3.29c0-1.24,0.26-2.34,0.79-3.3
	c0.53-0.95,1.25-1.7,2.15-2.22c0.9-0.52,1.92-0.79,3.03-0.79c1.11,0,2.12,0.26,3.03,0.79c0.91,0.52,1.62,1.27,2.14,2.22
	c0.53,0.96,0.79,2.06,0.79,3.3c0,1.24-0.26,2.34-0.79,3.29C456.89,135.58,456.18,136.32,455.27,136.84 M445.95,141.32
	c1.86,0.99,3.96,1.48,6.3,1.48c2.33,0,4.43-0.49,6.29-1.48c1.86-0.99,3.32-2.36,4.38-4.1c1.06-1.75,1.59-3.71,1.59-5.9
	c0-2.19-0.53-4.15-1.59-5.9c-1.06-1.75-2.52-3.11-4.38-4.1c-1.86-0.99-3.96-1.48-6.29-1.48c-2.34,0-4.43,0.49-6.3,1.48
	c-1.86,0.99-3.32,2.35-4.39,4.1c-1.06,1.75-1.59,3.71-1.59,5.9c0,2.19,0.53,4.15,1.59,5.9
	C442.62,138.97,444.08,140.33,445.95,141.32 M474.15,141.34c1.84,0.98,3.92,1.47,6.23,1.47c2.02,0,3.84-0.36,5.46-1.07
	c1.62-0.72,2.96-1.75,4.04-3.09l-3.97-3.6c-1.43,1.72-3.17,2.59-5.21,2.59c-1.2,0-2.27-0.26-3.2-0.79
	c-0.94-0.52-1.66-1.27-2.18-2.22c-0.51-0.95-0.77-2.05-0.77-3.29c0-1.24,0.26-2.34,0.77-3.3c0.52-0.96,1.24-1.7,2.18-2.22
	c0.94-0.52,2-0.79,3.2-0.79c2.04,0,3.77,0.86,5.21,2.59l3.97-3.6c-1.07-1.35-2.42-2.38-4.04-3.09c-1.62-0.71-3.44-1.07-5.46-1.07
	c-2.32,0-4.39,0.49-6.23,1.47c-1.84,0.98-3.29,2.34-4.34,4.09c-1.05,1.75-1.58,3.72-1.58,5.93c0,2.21,0.52,4.19,1.58,5.93
	C470.87,139,472.31,140.36,474.15,141.34 M501.15,133.47l2.84-7.07l2.84,7.07H501.15z M510.39,142.36h6.5l-9.78-22.08h-6.15
	l-9.75,22.08h6.38l1.74-4.29h9.33L510.39,142.36z M523.83,142.36h6.25v-17.13h6.75v-4.95h-19.78v4.95h6.78V142.36z M540.74,142.36
	h6.24v-22.08h-6.24V142.36z M567.18,136.84c-0.9,0.53-1.91,0.79-3.03,0.79c-1.12,0-2.13-0.26-3.03-0.79
	c-0.9-0.52-1.62-1.27-2.15-2.22c-0.52-0.95-0.79-2.05-0.79-3.29c0-1.24,0.26-2.34,0.79-3.3c0.53-0.95,1.25-1.7,2.15-2.22
	c0.9-0.52,1.92-0.79,3.03-0.79c1.11,0,2.12,0.26,3.03,0.79c0.91,0.52,1.62,1.27,2.14,2.22c0.53,0.96,0.79,2.06,0.79,3.3
	c0,1.24-0.26,2.34-0.79,3.29C568.8,135.58,568.09,136.32,567.18,136.84 M557.86,141.32c1.86,0.99,3.96,1.48,6.3,1.48
	c2.33,0,4.43-0.49,6.29-1.48c1.86-0.99,3.32-2.36,4.38-4.1c1.06-1.75,1.59-3.71,1.59-5.9c0-2.19-0.53-4.15-1.59-5.9
	c-1.06-1.75-2.52-3.11-4.38-4.1c-1.86-0.99-3.96-1.48-6.29-1.48c-2.34,0-4.43,0.49-6.3,1.48c-1.86,0.99-3.32,2.35-4.39,4.1
	c-1.06,1.75-1.59,3.71-1.59,5.9c0,2.19,0.53,4.15,1.59,5.9C554.53,138.97,555.99,140.33,557.86,141.32 M596.18,120.28v11.77
	l-9.75-11.77h-5.14v22.09h6.12V130.6l9.75,11.77h5.14v-22.09H596.18z M615.58,133.47l2.84-7.07l2.84,7.07H615.58z M624.82,142.36
	h6.5l-9.78-22.08h-6.15l-9.75,22.08h6.37l1.74-4.29h9.34L624.82,142.36z M634.67,142.36h16.78v-4.95h-10.54v-17.13h-6.24V142.36z
	 M671.03,141.34c1.84,0.98,3.92,1.47,6.23,1.47c2.02,0,3.84-0.36,5.46-1.07c1.62-0.72,2.97-1.75,4.04-3.09l-3.97-3.6
	c-1.43,1.72-3.17,2.59-5.21,2.59c-1.2,0-2.27-0.26-3.2-0.79c-0.94-0.52-1.66-1.27-2.18-2.22c-0.52-0.95-0.77-2.05-0.77-3.29
	c0-1.24,0.26-2.34,0.77-3.3c0.52-0.96,1.24-1.7,2.18-2.22c0.93-0.52,2-0.79,3.2-0.79c2.04,0,3.77,0.86,5.21,2.59l3.97-3.6
	c-1.07-1.35-2.42-2.38-4.04-3.09c-1.62-0.71-3.44-1.07-5.46-1.07c-2.31,0-4.39,0.49-6.23,1.47c-1.84,0.98-3.29,2.34-4.34,4.09
	c-1.05,1.75-1.58,3.72-1.58,5.93c0,2.21,0.52,4.19,1.58,5.93C667.74,139,669.18,140.36,671.03,141.34 M704.8,136.84
	c-0.91,0.53-1.92,0.79-3.03,0.79s-2.12-0.26-3.03-0.79c-0.9-0.52-1.62-1.27-2.14-2.22c-0.53-0.95-0.79-2.05-0.79-3.29
	c0-1.24,0.26-2.34,0.79-3.3c0.52-0.95,1.24-1.7,2.14-2.22c0.91-0.52,1.91-0.79,3.03-0.79s2.12,0.26,3.03,0.79
	c0.9,0.52,1.62,1.27,2.15,2.22c0.52,0.96,0.79,2.06,0.79,3.3c0,1.24-0.26,2.34-0.79,3.29C706.42,135.58,705.71,136.32,704.8,136.84
	 M695.48,141.32c1.86,0.99,3.96,1.48,6.29,1.48c2.34,0,4.43-0.49,6.29-1.48c1.86-0.99,3.32-2.36,4.39-4.1
	c1.06-1.75,1.6-3.71,1.6-5.9c0-2.19-0.53-4.15-1.6-5.9c-1.06-1.75-2.52-3.11-4.39-4.1c-1.86-0.99-3.96-1.48-6.29-1.48
	c-2.34,0-4.43,0.49-6.29,1.48c-1.86,0.99-3.32,2.35-4.38,4.1c-1.06,1.75-1.59,3.71-1.59,5.9c0,2.19,0.53,4.15,1.59,5.9
	S693.62,140.33,695.48,141.32 M718.91,142.36h16.79v-4.95h-10.54v-17.13h-6.25V142.36z M739.73,142.36h16.79v-4.95h-10.54v-17.13
	h-6.25V142.36z M766.74,137.54v-4.04h9.81v-4.67h-9.81v-3.72h11.13v-4.83h-17.32v22.08h17.73v-4.83H766.74z M798.1,136.91
	c-1.05,0.48-2.17,0.73-3.37,0.73c-1.22,0-2.31-0.27-3.25-0.81c-0.95-0.54-1.68-1.28-2.21-2.24c-0.53-0.96-0.79-2.05-0.79-3.27
	c0-1.91,0.57-3.44,1.73-4.59c1.16-1.15,2.68-1.72,4.57-1.72c2.08,0,3.87,0.82,5.37,2.46l3.97-3.6c-1.1-1.3-2.46-2.3-4.1-3
	c-1.64-0.69-3.49-1.04-5.55-1.04c-2.36,0-4.47,0.49-6.34,1.47c-1.87,0.98-3.33,2.34-4.39,4.09c-1.05,1.75-1.57,3.72-1.57,5.93
	c0,2.21,0.52,4.18,1.57,5.93c1.05,1.75,2.51,3.11,4.35,4.09c1.85,0.98,3.93,1.47,6.25,1.47c1.64,0,3.28-0.24,4.92-0.73
	c1.64-0.48,3.09-1.18,4.36-2.08v-9.15h-5.53V136.91z M815.35,137.54v-4.04h9.81v-4.67h-9.81v-3.72h11.14v-4.83h-17.32v22.08h17.73
	v-4.83H815.35z M260.22,112.52c0-27.49-22.29-49.78-49.78-49.78c-27.49,0-49.78,22.29-49.78,49.78c0,27.49,22.29,49.78,49.78,49.78
	C237.93,162.3,260.22,140.01,260.22,112.52 M351.16,223.78c0-27.49-22.29-49.78-49.78-49.78s-49.78,22.29-49.78,49.78
	c0,27.49,22.29,49.78,49.78,49.78S351.16,251.27,351.16,223.78 M214.72,223.92l35.27-35.27C240.98,179.6,228.5,174,214.72,174
	c-27.49,0-49.78,22.29-49.78,49.78s22.29,49.78,49.78,49.78c13.71,0,26.13-5.54,35.13-14.51L214.72,223.92z M60.54,67.73l52.2,90.51
	l52.2-90.51H60.54z"/>
</svg>
