<?xml version="1.0" encoding="utf-8"?>
<!-- Generator: Adobe Illustrator 25.1.0, SVG Export Plug-In . SVG Version: 6.00 Build 0)  -->
<svg version="1.1" id="Layer_1" xmlns="http://www.w3.org/2000/svg" xmlns:xlink="http://www.w3.org/1999/xlink" x="0px" y="0px"
	 viewBox="0 0 412.74 334.7" style="enable-background:new 0 0 412.74 334.7;" xml:space="preserve">
<style type="text/css">
	.st0{fill:#FFFFFF;}
</style>
<path d="M259.98,112.52c0,27.49-22.29,49.78-49.78,49.78c-27.49,0-49.78-22.29-49.78-49.78c0-27.49,22.29-49.78,49.78-49.78
	C237.69,62.74,259.98,85.02,259.98,112.52 M350.92,223.78c0-27.49-22.29-49.78-49.78-49.78s-49.78,22.29-49.78,49.78
	c0,27.49,22.29,49.78,49.78,49.78S350.92,251.27,350.92,223.78 M214.48,223.92l35.27-35.27c-9.01-9.05-21.49-14.65-35.27-14.65
	c-27.49,0-49.78,22.29-49.78,49.78s22.29,49.78,49.78,49.78c13.71,0,26.13-5.54,35.13-14.51L214.48,223.92z M60.31,67.73l52.2,90.51
	l52.2-90.51H60.31z"/>
</svg>
